<svg xmlns="http://www.w3.org/2000/svg" xmlns:xlink="http://www.w3.org/1999/xlink" xmlns:lucid="lucid" width="920" height="270"><g transform="translate(-13 -9)" lucid:page-tab-id="0_0"><path d="M0 0h937.37v290.36H0z" fill="#fff"/><path d="M114.8 35.12h145.33v93.66H114.8z" stroke="#3a414a" stroke-width="1.5" fill="#fff"/><path d="M122.1 84.83h39.75v36.8H122.1z" stroke="#3a414a" stroke-width="1.5" fill="#f5f5f5"/><path d="M122.52 80.9a6 6 0 0 1 6-6h25.8a6 6 0 0 1 6 6v46.95a6 6 0 0 1-6 6h-25.8a6 6 0 0 1-6-6z" stroke="#000" stroke-opacity="0" fill="#fff" fill-opacity="0"/><use xlink:href="#a" transform="matrix(1,0,0,1,127.52283464566906,79.91148764216442) translate(8.457070707070706 29.47222222222222)"/><path d="M167.95 84.83h39.75v36.8h-39.75z" stroke="#3a414a" stroke-width="1.5" fill="#f5f5f5"/><path d="M168.37 80.9a6 6 0 0 1 6-6h25.8a6 6 0 0 1 6 6v46.95a6 6 0 0 1-6 6h-25.8a6 6 0 0 1-6-6z" stroke="#000" stroke-opacity="0" fill="#fff" fill-opacity="0"/><use xlink:href="#b" transform="matrix(1,0,0,1,173.36753958097285,79.91148764216442) translate(4.315656565656566 29.47222222222222)"/><path d="M213.8 84.83h39.74v36.8H213.8z" stroke="#3a414a" stroke-width="1.5" fill="#f5f5f5"/><path d="M214.2 80.9a6 6 0 0 1 6-6H246a6 6 0 0 1 6 6v46.95a6 6 0 0 1-6 6h-25.8a6 6 0 0 1-6-6z" stroke="#000" stroke-opacity="0" fill="#fff" fill-opacity="0"/><use xlink:href="#c" transform="matrix(1,0,0,1,219.21224451627614,79.91148764216442) translate(5.742424242424242 29.47222222222222)"/><path d="M122.1 41.41l39.75.02v36.8H122.1z" stroke="#3a414a" stroke-width="1.5" fill="#f5f5f5"/><path d="M122.52 37.5a6 6 0 0 1 6-6h25.8a6 6 0 0 1 6 6v46.93a6 6 0 0 1-6 6h-25.8a6 6 0 0 1-6-6z" stroke="#000" stroke-opacity="0" fill="#fff" fill-opacity="0"/><use xlink:href="#d" transform="matrix(1,0,0,1,127.52283464566906,36.49606299212599) translate(8.457070707070706 29.47222222222222)"/><path d="M167.95 41.41l39.75.02v36.8h-39.75z" stroke="#3a414a" stroke-width="1.5" fill="#f5f5f5"/><path d="M168.37 37.5a6 6 0 0 1 6-6h25.8a6 6 0 0 1 6 6v46.93a6 6 0 0 1-6 6h-25.8a6 6 0 0 1-6-6z" stroke="#000" stroke-opacity="0" fill="#fff" fill-opacity="0"/><use xlink:href="#e" transform="matrix(1,0,0,1,173.36753958097285,36.49606299212599) translate(8.924242424242426 29.47222222222222)"/><path d="M213.8 41.41l39.74.02v36.8H213.8z" stroke="#3a414a" stroke-width="1.5" fill="#f5f5f5"/><path d="M214.2 37.5a6 6 0 0 1 6-6H246a6 6 0 0 1 6 6v46.93a6 6 0 0 1-6 6h-25.8a6 6 0 0 1-6-6z" stroke="#000" stroke-opacity="0" fill="#fff" fill-opacity="0"/><use xlink:href="#f" transform="matrix(1,0,0,1,219.21224451627612,36.49606299212599) translate(8.52020202020202 29.47222222222222)"/><path d="M69.3 72.9H214.6v93.67H69.3z" stroke="#3a414a" stroke-width="1.5" fill="#fff"/><path d="M50.4 217.93a6 6 0 0 1 6-6h223.74a6 6 0 0 1 6 6v46.94a6 6 0 0 1-6 6H56.4a6 6 0 0 1-6-6z" stroke="#000" stroke-opacity="0" fill="#fff" fill-opacity="0"/><use xlink:href="#g" transform="matrix(1,0,0,1,55.39370078740146,216.9292744969274) translate(45.5 29.47222222222222)"/><use xlink:href="#h" transform="matrix(1,0,0,1,55.39370078740146,216.9292744969274) translate(61.25757575757576 29.47222222222222)"/><use xlink:href="#i" transform="matrix(1,0,0,1,55.39370078740146,216.9292744969274) translate(77.97474747474747 29.47222222222222)"/><use xlink:href="#h" transform="matrix(1,0,0,1,55.39370078740146,216.9292744969274) translate(93.73232323232324 29.47222222222222)"/><use xlink:href="#j" transform="matrix(1,0,0,1,55.39370078740146,216.9292744969274) translate(110.44949494949495 29.47222222222222)"/><use xlink:href="#k" transform="matrix(1,0,0,1,55.39370078740146,216.9292744969274) translate(126.76262626262627 29.47222222222222)"/><path d="M59.8 76.8V164h-1.5V76.8z" stroke="#000" stroke-width="1.5" fill="none"/><path d="M25.2 97.8a6 6 0 0 1 6-6H57a6 6 0 0 1 6 6v46.95a6 6 0 0 1-6 6H31.2a6 6 0 0 1-6-6z" stroke="#000" stroke-opacity="0" fill="#fff" fill-opacity="0"/><use xlink:href="#l" transform="matrix(1,0,0,1,30.196850393700785,96.80912543744003) translate(8.621212121212121 29.47222222222222)"/><path d="M210.27 178.3H72.35v-1.5h137.92z" stroke="#000" stroke-width="1.5" fill="none"/><path d="M210.58 174.5v5.94l4.32-2.98zM73.5 180.4v-5.96l-4.33 2.97zM56.1 77.25h5.95l-2.98-4.33zM62.08 162.26h-5.95l2.97 4.33z" stroke="#000"/><path d="M125.98 179.7a6 6 0 0 1 6-6h25.8a6 6 0 0 1 6 6v26.23a6 6 0 0 1-6 6h-25.8a6 6 0 0 1-6-6z" stroke="#000" stroke-opacity="0" fill="#fff" fill-opacity="0"/><use xlink:href="#m" transform="matrix(1,0,0,1,130.98425196850374,178.69888921696761) translate(8.343434343434343 20.84722222222222)"/><path d="M76.6 79.2h39.74V116H76.6z" stroke="#3a414a" stroke-width="1.5" fill="#f5f5f5"/><path d="M77 75.3a6 6 0 0 1 6-6h25.8a6 6 0 0 1 6 6v46.93a6 6 0 0 1-6 6H83a6 6 0 0 1-6-6z" stroke="#000" stroke-opacity="0" fill="#fff" fill-opacity="0"/><use xlink:href="#n" transform="matrix(1,0,0,1,82.0094488188975,74.29133858267716) translate(8.444444444444445 29.47222222222222)"/><path d="M122.44 79.2h39.75V116h-39.76z" stroke="#3a414a" stroke-width="1.5" fill="#f5f5f5"/><path d="M122.85 75.3a6 6 0 0 1 6-6h25.8a6 6 0 0 1 6 6v46.93a6 6 0 0 1-6 6h-25.8a6 6 0 0 1-6-6z" stroke="#000" stroke-opacity="0" fill="#fff" fill-opacity="0"/><use xlink:href="#o" transform="matrix(1,0,0,1,127.85415375420123,74.29133858267716) translate(9.871212121212121 29.47222222222222)"/><path d="M168.28 79.2h39.75V116h-39.75z" stroke="#3a414a" stroke-width="1.5" fill="#f5f5f5"/><path d="M168.7 75.3a6 6 0 0 1 6-6h25.8a6 6 0 0 1 6 6v46.93a6 6 0 0 1-6 6h-25.8a6 6 0 0 1-6-6z" stroke="#000" stroke-opacity="0" fill="#fff" fill-opacity="0"/><use xlink:href="#p" transform="matrix(1,0,0,1,173.69885868950456,74.29133858267716) translate(8.621212121212121 29.47222222222222)"/><path d="M76.6 122.63h39.74v36.8H76.6z" stroke="#3a414a" stroke-width="1.5" fill="#f5f5f5"/><path d="M77 118.7a6 6 0 0 1 6-6h25.8a6 6 0 0 1 6 6v46.94a6 6 0 0 1-6 6H83a6 6 0 0 1-6-6z" stroke="#000" stroke-opacity="0" fill="#fff" fill-opacity="0"/><use xlink:href="#q" transform="matrix(1,0,0,1,82.0094488188975,117.70676323271564) translate(8.343434343434343 29.47222222222222)"/><path d="M122.44 122.63h39.75v36.8h-39.76z" stroke="#3a414a" stroke-width="1.5" fill="#f5f5f5"/><path d="M122.85 118.7a6 6 0 0 1 6-6h25.8a6 6 0 0 1 6 6v46.94a6 6 0 0 1-6 6h-25.8a6 6 0 0 1-6-6z" stroke="#000" stroke-opacity="0" fill="#fff" fill-opacity="0"/><use xlink:href="#r" transform="matrix(1,0,0,1,127.85415375420123,117.70676323271564) translate(8.292929292929294 29.47222222222222)"/><path d="M168.28 122.63h39.75v36.8h-39.75z" stroke="#3a414a" stroke-width="1.5" fill="#f5f5f5"/><path d="M168.7 118.7a6 6 0 0 1 6-6h25.8a6 6 0 0 1 6 6v46.94a6 6 0 0 1-6 6h-25.8a6 6 0 0 1-6-6z" stroke="#000" stroke-opacity="0" fill="#fff" fill-opacity="0"/><use xlink:href="#s" transform="matrix(1,0,0,1,173.69885868950456,117.70676323271564) translate(8.595959595959595 29.47222222222222)"/><path d="M262.06 138.22l-37 37-1.07-1.05 37-37z" stroke="#000" stroke-width="1.5" fill="none"/><path d="M258.1 136.9l4.2 4.22.97-5.17zM227.74 175.63l-4.2-4.2-.96 5.16z" stroke="#000"/><path d="M236.07 145.12a6 6 0 0 1 6-6h25.8a6 6 0 0 1 6 6v46.93a6 6 0 0 1-6 6h-25.8a6 6 0 0 1-6-6z" stroke="#000" stroke-opacity="0" fill="#fff" fill-opacity="0"/><use xlink:href="#t" transform="matrix(1,0,0,1,241.0708661417323,144.11599255146376) translate(8.621212121212121 29.47222222222222)"/><path d="M346.46 86.5h39.75v36.8h-39.74z" stroke="#3a414a" stroke-width="1.5" fill="#f5f5f5"/><path d="M346.88 82.6a6 6 0 0 1 6-6h25.8a6 6 0 0 1 6 6v46.93a6 6 0 0 1-6 6h-25.8a6 6 0 0 1-6-6z" stroke="#000" stroke-opacity="0" fill="#fff" fill-opacity="0"/><use xlink:href="#n" transform="matrix(1,0,0,1,351.87559055118106,81.59055118110231) translate(8.444444444444445 29.47222222222222)"/><path d="M392.3 86.5h39.75v36.8H392.3z" stroke="#3a414a" stroke-width="1.5" fill="#f5f5f5"/><path d="M392.72 82.6a6 6 0 0 1 6-6h25.8a6 6 0 0 1 6 6v46.93a6 6 0 0 1-6 6h-25.8a6 6 0 0 1-6-6z" stroke="#000" stroke-opacity="0" fill="#fff" fill-opacity="0"/><use xlink:href="#o" transform="matrix(1,0,0,1,397.7202954864848,81.59055118110231) translate(9.871212121212121 29.47222222222222)"/><path d="M438.15 86.5h39.75v36.8h-39.75z" stroke="#3a414a" stroke-width="1.5" fill="#f5f5f5"/><path d="M438.56 82.6a6 6 0 0 1 6-6h25.8a6 6 0 0 1 6 6v46.93a6 6 0 0 1-6 6h-25.8a6 6 0 0 1-6-6z" stroke="#000" stroke-opacity="0" fill="#fff" fill-opacity="0"/><use xlink:href="#p" transform="matrix(1,0,0,1,443.5650004217881,81.59055118110231) translate(8.621212121212121 29.47222222222222)"/><path d="M484 86.5h39.74v36.8H484z" stroke="#3a414a" stroke-width="1.5" fill="#f5f5f5"/><path d="M484.4 82.6a6 6 0 0 1 6-6h25.8a6 6 0 0 1 6 6v46.93a6 6 0 0 1-6 6h-25.8a6 6 0 0 1-6-6z" stroke="#000" stroke-opacity="0" fill="#fff" fill-opacity="0"/><use xlink:href="#q" transform="matrix(1,0,0,1,489.4097053570912,81.59055118110231) translate(8.343434343434343 29.47222222222222)"/><path d="M529.84 86.5h39.75v36.8h-39.76z" stroke="#3a414a" stroke-width="1.5" fill="#f5f5f5"/><path d="M530.25 82.6a6 6 0 0 1 6-6h25.8a6 6 0 0 1 6 6v46.93a6 6 0 0 1-6 6h-25.8a6 6 0 0 1-6-6z" stroke="#000" stroke-opacity="0" fill="#fff" fill-opacity="0"/><use xlink:href="#r" transform="matrix(1,0,0,1,535.2544102923948,81.59055118110231) translate(8.292929292929294 29.47222222222222)"/><path d="M575.68 86.5h39.75v36.8h-39.75z" stroke="#3a414a" stroke-width="1.5" fill="#f5f5f5"/><path d="M576.1 82.6a6 6 0 0 1 6-6h25.8a6 6 0 0 1 6 6v46.93a6 6 0 0 1-6 6h-25.8a6 6 0 0 1-6-6z" stroke="#000" stroke-opacity="0" fill="#fff" fill-opacity="0"/><use xlink:href="#s" transform="matrix(1,0,0,1,581.0991152276981,81.59055118110231) translate(8.595959595959595 29.47222222222222)"/><path d="M621.52 86.7h39.75v36.78h-39.75z" stroke="#3a414a" stroke-width="1.5" fill="#f5f5f5"/><path d="M621.94 82.77a6 6 0 0 1 6-6h25.8a6 6 0 0 1 6 6v46.94a6 6 0 0 1-6 6h-25.8a6 6 0 0 1-6-6z" stroke="#000" stroke-opacity="0" fill="#fff" fill-opacity="0"/><use xlink:href="#d" transform="matrix(1,0,0,1,626.9438201630012,81.76866612334751) translate(8.457070707070706 29.47222222222222)"/><path d="M667.37 86.7h39.75v36.78h-39.75z" stroke="#3a414a" stroke-width="1.5" fill="#f5f5f5"/><path d="M667.8 82.77a6 6 0 0 1 6-6h25.78a6 6 0 0 1 6 6v46.94a6 6 0 0 1-6 6h-25.8a6 6 0 0 1-6-6z" stroke="#000" stroke-opacity="0" fill="#fff" fill-opacity="0"/><use xlink:href="#e" transform="matrix(1,0,0,1,672.788525098305,81.76866612334751) translate(8.924242424242426 29.47222222222222)"/><path d="M713.2 86.7h39.76v36.78H713.2z" stroke="#3a414a" stroke-width="1.5" fill="#f5f5f5"/><path d="M713.63 82.77a6 6 0 0 1 6-6h25.8a6 6 0 0 1 6 6v46.94a6 6 0 0 1-6 6h-25.8a6 6 0 0 1-6-6z" stroke="#000" stroke-opacity="0" fill="#fff" fill-opacity="0"/><use xlink:href="#f" transform="matrix(1,0,0,1,718.6332300336082,81.76866612334751) translate(8.52020202020202 29.47222222222222)"/><path d="M759.06 86.7h39.75v36.78h-39.74z" stroke="#3a414a" stroke-width="1.5" fill="#f5f5f5"/><path d="M759.48 82.77a6 6 0 0 1 6-6h25.8a6 6 0 0 1 6 6v46.94a6 6 0 0 1-6 6h-25.8a6 6 0 0 1-6-6z" stroke="#000" stroke-opacity="0" fill="#fff" fill-opacity="0"/><use xlink:href="#a" transform="matrix(1,0,0,1,764.4779349689113,81.76866612334751) translate(8.457070707070706 29.47222222222222)"/><path d="M804.9 86.7h39.75v36.78H804.9z" stroke="#3a414a" stroke-width="1.5" fill="#f5f5f5"/><path d="M805.32 82.77a6 6 0 0 1 6-6h25.8a6 6 0 0 1 6 6v46.94a6 6 0 0 1-6 6h-25.8a6 6 0 0 1-6-6z" stroke="#000" stroke-opacity="0" fill="#fff" fill-opacity="0"/><use xlink:href="#b" transform="matrix(1,0,0,1,810.3226399042151,81.76866612334751) translate(4.315656565656566 29.47222222222222)"/><path d="M850.75 86.7h39.75v36.78h-39.75z" stroke="#3a414a" stroke-width="1.5" fill="#f5f5f5"/><path d="M851.17 82.77a6 6 0 0 1 6-6h25.8a6 6 0 0 1 6 6v46.94a6 6 0 0 1-6 6h-25.8a6 6 0 0 1-6-6z" stroke="#000" stroke-opacity="0" fill="#fff" fill-opacity="0"/><g><use xlink:href="#c" transform="matrix(1,0,0,1,856.1673448395184,81.76866612334751) translate(5.742424242424242 29.47222222222222)"/></g><path d="M491.34 217.93a6 6 0 0 1 6-6h223.74a6 6 0 0 1 6 6v46.94a6 6 0 0 1-6 6H497.34a6 6 0 0 1-6-6z" stroke="#000" stroke-opacity="0" fill="#fff" fill-opacity="0"/><g><use xlink:href="#u" transform="matrix(1,0,0,1,496.3385826771653,216.9292744969274) translate(8.732323232323239 29.47222222222222)"/><use xlink:href="#v" transform="matrix(1,0,0,1,496.3385826771653,216.9292744969274) translate(72.41919191919193 29.47222222222222)"/><use xlink:href="#w" transform="matrix(1,0,0,1,496.3385826771653,216.9292744969274) translate(128.95959595959596 29.47222222222222)"/><use xlink:href="#x" transform="matrix(1,0,0,1,496.3385826771653,216.9292744969274) translate(148.58080808080808 29.47222222222222)"/></g><defs><path fill="#3a414a" d="M1328-984c-104 151-259 272-504 272-262 0-453-148-556-328-113-197-116-494-4-696 107-193 308-353 600-340 515 23 711 405 712 968 1 348-66 637-200 841C1262-95 1095 28 832 28c-367 0-581-222-636-544h244c42 179 171 327 392 324 158 0 282-69 374-207s138-333 138-585h-16zm-236-807c-129-84-323-85-454-3-120 76-217 217-218 402 1 184 92 325 212 398 109 71 275 82 401 24 152-74 275-212 275-426 0-179-99-319-216-395" id="y"/><use transform="matrix(0.006313131313131313,0,0,0.006313131313131313,0,0)" xlink:href="#y" id="a"/><path fill="#3a414a" d="M932-2048V0H684v-1788h-12l-500 332v-252l512-340h248" id="z"/><path fill="#3a414a" d="M1265-96C1065 66 695 66 495-96c-222-180-329-510-327-928-2-417 106-748 328-928 201-163 567-163 768 0 222 180 330 511 328 928 2 418-105 748-327 928zm-385-96c149 0 265-72 348-216s124-349 124-616c1-322-63-589-218-738-70-65-155-98-254-98-148 0-264 72-347 218s-125 352-125 618c-1 322 63 587 218 735 70 65 155 97 254 97" id="A"/><g id="b"><use transform="matrix(0.006313131313131313,0,0,0.006313131313131313,0,0)" xlink:href="#z"/><use transform="matrix(0.006313131313131313,0,0,0.006313131313131313,8.257575757575758,0)" xlink:href="#A"/></g><g id="c"><use transform="matrix(0.006313131313131313,0,0,0.006313131313131313,0,0)" xlink:href="#z"/><use transform="matrix(0.006313131313131313,0,0,0.006313131313131313,8.257575757575758,0)" xlink:href="#z"/></g><path fill="#3a414a" d="M428-1068c104-152 260-272 504-272 263 0 452 148 556 328 114 198 115 497 3 700-107 194-308 352-599 340C375 6 181-380 180-944c2-496 125-879 434-1057 171-99 440-99 616-7 172 86 296 254 330 472h-244c-44-175-171-324-392-320-159 0-283 69-374 207s-137 332-138 581h16zm236 811c129 84 325 87 454 2 122-75 217-217 218-405-1-183-94-323-212-398-110-70-274-83-401-24-152 74-275 211-275 426 0 181 98 322 216 399" id="B"/><use transform="matrix(0.006313131313131313,0,0,0.006313131313131313,0,0)" xlink:href="#B" id="d"/><path fill="#3a414a" d="M276 0l916-1812v-16H136v-220h1312v232L536 0H276" id="C"/><use transform="matrix(0.006313131313131313,0,0,0.006313131313131313,0,0)" xlink:href="#C" id="e"/><path fill="#3a414a" d="M1488-1532c1 220-138 414-320 456v12c233 53 396 246 396 520 0 248-151 410-334 498-200 96-526 95-726 0-184-88-330-248-332-498-1-189 85-337 194-426 60-50 127-81 202-94v-12c-185-41-323-234-320-456 1-232 135-388 300-473 180-92 458-93 638 0 165 85 298 242 302 473zM416-556c7 251 191 364 452 364s452-115 452-364c0-253-192-392-452-396-181-3-322 79-394 191-39 59-59 128-58 205zm452-1304c-228 0-380 119-380 344s154 352 380 352 380-129 380-352c0-222-153-344-380-344" id="D"/><use transform="matrix(0.006313131313131313,0,0,0.006313131313131313,0,0)" xlink:href="#D" id="f"/><path fill="#2196f3" d="M844-1860c-242 0-383 145-388 388H220c0-257 136-434 310-528 183-98 461-100 641 0 164 90 297 257 297 492 0 209-70 314-180 460-195 257-508 562-736 812v16h952V0H212v-180l676-740c128-145 234-249 310-408 25-57 38-117 38-180-7-228-163-352-392-352" id="E"/><use transform="matrix(0.006313131313131313,0,0,0.006313131313131313,0,0)" xlink:href="#E" id="g"/><path d="M1416-160L288-1288l152-152L1568-312zm-976 0L288-312l1128-1128 152 152" id="F"/><use transform="matrix(0.006313131313131313,0,0,0.006313131313131313,0,0)" xlink:href="#F" id="h"/><path fill="#67bc6b" d="M844-1860c-242 0-383 145-388 388H220c0-257 136-434 310-528 183-98 461-100 641 0 164 90 297 257 297 492 0 209-70 314-180 460-195 257-508 562-736 812v16h952V0H212v-180l676-740c128-145 234-249 310-408 25-57 38-117 38-180-7-228-163-352-392-352" id="G"/><use transform="matrix(0.006313131313131313,0,0,0.006313131313131313,0,0)" xlink:href="#G" id="i"/><path fill="#eb417a" d="M1184-1048c243 35 412 221 412 492-3 250-156 418-337 508-196 98-506 99-707 8-185-81-330-235-344-472h252c25 214 205 314 440 320 178 1 320-68 394-174 39-55 58-118 58-190-11-265-203-381-484-384H704v-220h164c240-5 412-121 412-356 0-222-147-344-372-344-224 0-399 110-416 324H252c10-235 160-389 336-472 189-89 475-91 650 8 157 89 278 249 282 472 1 242-143 408-336 464v16" id="H"/><use transform="matrix(0.006313131313131313,0,0,0.006313131313131313,0,0)" xlink:href="#H" id="j"/><path d="M884-1536v200H88v-200h796zM912-8C806 31 647 29 540-23 419-82 320-195 320-376v-1528h236v1464c-3 157 61 231 204 232 42 1 74-6 104-12" id="I"/><path d="M1472-356c-81 240-294 384-612 388-314 0-521-155-630-374-113-227-112-601 0-830 106-217 302-384 606-384 475 0 684 339 660 868H312v-204h944c-7-269-152-447-420-452-198-4-333 114-401 250-58 110-57 222-55 374 4 329 162 540 480 540 202 0 327-90 384-240" id="J"/><path d="M844-1344c-250 5-392 162-392 420V0H216v-1536h228v240h20c73-154 217-263 448-260 349 8 519 217 520 580V0h-236v-960c3-231-128-388-352-384" id="K"/><path d="M728-176c184 3 360-85 360-240 0-133-100-185-228-216l-256-60c-141-33-244-86-310-156-120-119-130-353-24-494 95-127 270-214 490-214 302 0 467 146 544 364l-212 60c-51-127-146-220-332-220-162 0-326 82-328 228 0 59 21 105 64 139 86 72 291 106 428 141s240 84 307 152c125 117 132 357 25 500C1155-57 969 34 732 32c-311 1-533-140-584-400l224-56c41 161 158 245 356 248" id="L"/><path d="M1204-67C1004 62 676 62 476-67S143-436 144-760c-1-326 132-568 332-697s528-129 728 0 333 371 332 697c1 324-133 564-332 693zM580-261c128 104 389 100 520 0 184-140 253-512 151-786-62-165-189-298-411-297-325 7-460 262-460 584 0 217 75 397 200 499" id="M"/><path d="M840-1332c-228 7-388 135-388 360V0H216v-1536h228v232h16c48-143 212-258 400-256 29 0 98 1 124 4v240c-30-6-100-18-144-16" id="N"/><g id="k"><use transform="matrix(0.006313131313131313,0,0,0.006313131313131313,0,0)" xlink:href="#I"/><use transform="matrix(0.006313131313131313,0,0,0.006313131313131313,6.4646464646464645,0)" xlink:href="#J"/><use transform="matrix(0.006313131313131313,0,0,0.006313131313131313,16.818181818181817,0)" xlink:href="#K"/><use transform="matrix(0.006313131313131313,0,0,0.006313131313131313,27.22222222222222,0)" xlink:href="#L"/><use transform="matrix(0.006313131313131313,0,0,0.006313131313131313,36.515151515151516,0)" xlink:href="#M"/><use transform="matrix(0.006313131313131313,0,0,0.006313131313131313,47.121212121212125,0)" xlink:href="#N"/></g><use transform="matrix(0.006313131313131313,0,0,0.006313131313131313,0,0)" xlink:href="#G" id="l"/><use transform="matrix(0.006313131313131313,0,0,0.006313131313131313,0,0)" xlink:href="#H" id="m"/><use transform="matrix(0.006313131313131313,0,0,0.006313131313131313,0,0)" xlink:href="#A" id="n"/><use transform="matrix(0.006313131313131313,0,0,0.006313131313131313,0,0)" xlink:href="#z" id="o"/><path fill="#3a414a" d="M844-1860c-242 0-383 145-388 388H220c0-257 136-434 310-528 183-98 461-100 641 0 164 90 297 257 297 492 0 209-70 314-180 460-195 257-508 562-736 812v16h952V0H212v-180l676-740c128-145 234-249 310-408 25-57 38-117 38-180-7-228-163-352-392-352" id="O"/><use transform="matrix(0.006313131313131313,0,0,0.006313131313131313,0,0)" xlink:href="#O" id="p"/><path fill="#3a414a" d="M1184-1048c243 35 412 221 412 492-3 250-156 418-337 508-196 98-506 99-707 8-185-81-330-235-344-472h252c25 214 205 314 440 320 178 1 320-68 394-174 39-55 58-118 58-190-11-265-203-381-484-384H704v-220h164c240-5 412-121 412-356 0-222-147-344-372-344-224 0-399 110-416 324H252c10-235 160-389 336-472 189-89 475-91 650 8 157 89 278 249 282 472 1 242-143 408-336 464v16" id="P"/><use transform="matrix(0.006313131313131313,0,0,0.006313131313131313,0,0)" xlink:href="#P" id="q"/><path fill="#3a414a" d="M164-420v-204l900-1424h148v316h-100L432-656v16h1212v220H164zM1128 0v-2048h236V0h-236" id="Q"/><use transform="matrix(0.006313131313131313,0,0,0.006313131313131313,0,0)" xlink:href="#Q" id="r"/><path fill="#3a414a" d="M520-1224c78-63 216-117 356-116 273 1 465 148 568 334 110 199 110 507-4 704-108 186-308 329-588 330-247 0-439-110-543-262-57-81-88-174-93-278h240c13 183 194 325 396 320 269-9 436-186 436-456 0-279-176-456-452-468-129-2-281 48-356 104l-232-28 124-1008h1064v220H580l-72 604h12" id="R"/><use transform="matrix(0.006313131313131313,0,0,0.006313131313131313,0,0)" xlink:href="#R" id="s"/><use transform="matrix(0.006313131313131313,0,0,0.006313131313131313,0,0)" xlink:href="#E" id="t"/><path d="M136-1828v-220h1536v220h-644V0H780v-1828H136" id="S"/><g id="u"><use transform="matrix(0.006313131313131313,0,0,0.006313131313131313,0,0)" xlink:href="#S"/><use transform="matrix(0.006313131313131313,0,0,0.006313131313131313,11.414141414141413,0)" xlink:href="#J"/><use transform="matrix(0.006313131313131313,0,0,0.006313131313131313,21.767676767676768,0)" xlink:href="#K"/><use transform="matrix(0.006313131313131313,0,0,0.006313131313131313,32.17171717171717,0)" xlink:href="#L"/><use transform="matrix(0.006313131313131313,0,0,0.006313131313131313,41.464646464646464,0)" xlink:href="#M"/><use transform="matrix(0.006313131313131313,0,0,0.006313131313131313,52.07070707070707,0)" xlink:href="#N"/></g><path d="M452-2048V0H216v-2048h236" id="T"/><path d="M1124-208C1047-67 898 39 668 36c-306-9-520-163-524-472-5-429 452-428 824-480 100-15 168-19 168-120 0-203-114-312-324-312-206 0-337 110-400 232l-224-80c96-234 308-360 616-360 350 0 568 167 568 544V0h-236v-208h-12zM380-424c-2 171 150 249 324 248 185 3 312-84 382-197 66-107 46-242 50-399-190 112-562 41-708 206-32 35-48 82-48 142" id="U"/><path d="M820 224c-80 231-250 391-559 342-31-6-53-12-65-18l60-208c117 28 200 27 270-42 54-53 103-195 138-290L96-1536h256L776-312h16l424-1224h256" id="V"/><path d="M452-576c-6 211 135 376 336 368 233-10 396-164 396-420v-908h236V0h-236v-260h-16C1095-108 943 25 712 20 377 9 216-206 216-560v-976h236v960" id="W"/><g id="v"><use transform="matrix(0.006313131313131313,0,0,0.006313131313131313,0,0)" xlink:href="#T"/><use transform="matrix(0.006313131313131313,0,0,0.006313131313131313,4.217171717171717,0)" xlink:href="#U"/><use transform="matrix(0.006313131313131313,0,0,0.006313131313131313,14.242424242424242,0)" xlink:href="#V"/><use transform="matrix(0.006313131313131313,0,0,0.006313131313131313,24.141414141414142,0)" xlink:href="#M"/><use transform="matrix(0.006313131313131313,0,0,0.006313131313131313,34.74747474747475,0)" xlink:href="#W"/><use transform="matrix(0.006313131313131313,0,0,0.006313131313131313,45.07575757575758,0)" xlink:href="#I"/></g><path d="M216 0v-1536h236V0H216zm288-1952c0 86-81 160-168 160s-168-74-168-160 81-160 168-160 168 74 168 160" id="X"/><g id="w"><use transform="matrix(0.006313131313131313,0,0,0.006313131313131313,0,0)" xlink:href="#X"/><use transform="matrix(0.006313131313131313,0,0,0.006313131313131313,4.217171717171717,0)" xlink:href="#K"/></g><path d="M1104-1052c4-173-131-299-304-292-212 9-348 163-348 384V0H216v-1536h228v240h20c59-155 204-260 412-260 216 0 340 107 412 260h16c75-152 235-262 460-260 300 6 468 196 468 528V0h-236v-1028c9-209-128-311-312-316-208-6-341 144-340 344V0h-240v-1052" id="Y"/><g id="x"><use transform="matrix(0.006313131313131313,0,0,0.006313131313131313,0,0)" xlink:href="#Y"/><use transform="matrix(0.006313131313131313,0,0,0.006313131313131313,15.454545454545455,0)" xlink:href="#J"/><use transform="matrix(0.006313131313131313,0,0,0.006313131313131313,25.80808080808081,0)" xlink:href="#Y"/><use transform="matrix(0.006313131313131313,0,0,0.006313131313131313,41.26262626262626,0)" xlink:href="#M"/><use transform="matrix(0.006313131313131313,0,0,0.006313131313131313,51.868686868686865,0)" xlink:href="#N"/><use transform="matrix(0.006313131313131313,0,0,0.006313131313131313,58.78787878787879,0)" xlink:href="#V"/></g></defs></g></svg>